<svg xmlns="http://www.w3.org/2000/svg" data-name="Layer 1" viewBox="0 0 91.48 53.51" x="0px" y="0px"><title>Chris_Kerr_Sneaker9</title><path d="M96.21,59.44a8.22,8.22,0,0,0-4.71-6.16,0.72,0.72,0,0,0-.65,0l-0.11,0a97.67,97.67,0,0,1-14-2.68,0.73,0.73,0,0,0-.38,0,29.7,29.7,0,0,1-7.17-2.46l-0.1,0A8.49,8.49,0,0,0,66,46.41a15.69,15.69,0,0,0-2.79-.71A0.7,0.7,0,0,0,63,45.6a44.59,44.59,0,0,1-6.56-3.86c-1.2-.84-2.5-1.59-3.76-2.31a27,27,0,0,1-5.64-3.88,0.7,0.7,0,0,0-.1-0.07,80.7,80.7,0,0,1-6-10.24,33.83,33.83,0,0,0-2.06-3.7,2.59,2.59,0,0,0-1.23-1,2.44,2.44,0,0,0-2.22.52c-1.42,1-7.81,7.3-7.09,11.64A6.08,6.08,0,0,0,29,34.37a5.64,5.64,0,0,1,.46,1.14l-0.26.15a10.24,10.24,0,0,1-1.54.81A8.06,8.06,0,0,1,25,37c-3.08.11-4.37-1.84-5.72-3.91-0.95-1.46-2.53-3.22-4.71-3.34A3.51,3.51,0,0,0,13,30c0.06-.66.12-1.34,0.18-2.08A0.74,0.74,0,0,0,13,27.34a0.92,0.92,0,0,0-.9-0.26,1.38,1.38,0,0,0-.9,1,21.4,21.4,0,0,0-.48,6.1c0,2.43.09,4.73-.91,6.86-0.4.86-.72,1.57-1,2.46A23.73,23.73,0,0,0,7,54.33H6.95a0.74,0.74,0,0,0-.47.49,4.27,4.27,0,0,0,.35,3.3,0.69,0.69,0,0,0,.15.15,2.26,2.26,0,0,0-.39,1.08c0,0.23,0,.46,0,0.69s0,0.55-.06.82a2.94,2.94,0,0,0-.63,2.43c0,0.15,0,.3,0,0.44a4.81,4.81,0,0,0,0,.77,3.34,3.34,0,0,0,.3,3A6.11,6.11,0,0,0,8.13,69,27.08,27.08,0,0,0,17,72.31l0.73,0.14c0.87,0.17,1.86.37,2.65,0.45a112.77,112.77,0,0,0,12.91.69h1.19a0.73,0.73,0,0,0,.47-0.18q8.82,0.53,17.61.53a284.43,284.43,0,0,0,30.84-1.66,3.88,3.88,0,0,0,1.71-.49h0.06a17.08,17.08,0,0,0,7-2,20.08,20.08,0,0,0,3.43-2.31,5.53,5.53,0,0,0,1.64-4.13A7.06,7.06,0,0,0,96.21,59.44Zm-4.48-4.35a6.65,6.65,0,0,1,3,4.61c-1,1.28-4.41,1.73-6.69,2-0.71.09-1.37,0.18-1.92,0.28-2.52.46-5.29,1.21-7.22,3.14-3.13-3-6-4.32-11-2.29a71.41,71.41,0,0,1-9.29,2.81,10.34,10.34,0,0,1-2-1.86,11.34,11.34,0,0,0-2.36-2.22,7.88,7.88,0,0,0-6.94-.39A15.41,15.41,0,0,0,44,63.08L43.55,63A39.59,39.59,0,0,1,54,57.78c2.61-.74,4.26-0.31,7,0.91,0.4,0.18.83,0.39,1.28,0.61a16.68,16.68,0,0,0,4.66,1.76,8.23,8.23,0,0,0,4.52-1.16,11.52,11.52,0,0,1,2.6-1,18.93,18.93,0,0,1,4.68-.21c0.77,0,1.57.06,2.43,0.05a20.74,20.74,0,0,0,9.09-2.23A3.21,3.21,0,0,0,91.73,55.09ZM78,66.29l-0.15.2a4.52,4.52,0,0,1-1.37,1.46,4.41,4.41,0,0,1-2.46.21c-4.15-.39-8.35-0.92-12.46-1.58l-0.24,0a66.73,66.73,0,0,0,7.21-2.31C72.84,62.47,75.14,63.53,78,66.29ZM34.34,70.62a74.88,74.88,0,0,1-12.56-1.29,21.09,21.09,0,0,1-4-1.3l-1.19-.48c-2.3-.92-4.68-1.68-7-2.43-0.4-.13-0.82-0.3-1.24-0.47s-0.66-.27-1-0.39a3.86,3.86,0,0,1,0-.5c0-.16,0-0.32,0-0.49a6.85,6.85,0,0,1,0-1c1.72,0.43,3.29.76,5.4,1.13,1.08,0.19,2.17.34,3.26,0.49L17.09,64l3,0.38a2.34,2.34,0,0,0-.46,1.1A2.37,2.37,0,0,0,20,67.27a2.35,2.35,0,0,0,1.56.91L33,69.74l0.32,0a2.37,2.37,0,0,0,2.34-2,2.47,2.47,0,0,0-.06-1l2.92,0.59ZM8.11,57.41a2.82,2.82,0,0,1-.34-1.52,2.52,2.52,0,0,0,1.12-.47,15.53,15.53,0,0,0,4.24-5.34,3.71,3.71,0,0,1,1.7-1.9,3.62,3.62,0,0,1,1.94.16L19.17,49c-1.11.81-2.22,1.61-3.35,2.38A0.74,0.74,0,0,0,16,52.66c4.26,1.12,8.8,2,13.18,2.81l2.45,0.47a4,4,0,0,0,.76.07,3.31,3.31,0,0,0,1.79-.49A4.34,4.34,0,0,0,35.55,54l0.6-1.1a84.66,84.66,0,0,0,8.64,1.45,19.56,19.56,0,0,0,7.79-.28c0.69-.2,1.34-0.47,2-0.72a14.37,14.37,0,0,1,2.58-.86,12.34,12.34,0,0,1,6.37.92l1.31,0.48a23.57,23.57,0,0,0,5.45,1.55,9.46,9.46,0,0,0,1.1.06A21.52,21.52,0,0,0,74,55.3l1.23-.14a0.73,0.73,0,0,0,.31-0.11,2.07,2.07,0,0,0,1.23-.58,2.54,2.54,0,0,0,.58-1.83c0-.15,0-0.26,0-0.37A97.51,97.51,0,0,0,90.24,54.7a2.41,2.41,0,0,1-.71.52,19.22,19.22,0,0,1-8.42,2.05c-0.84,0-1.61,0-2.35-.05a20.24,20.24,0,0,0-5,.23,12.74,12.74,0,0,0-2.95,1.1,7,7,0,0,1-3.7,1A15.77,15.77,0,0,1,62.9,58c-0.47-.23-0.91-0.45-1.32-0.63-2.93-1.32-5-1.84-8-1a42.06,42.06,0,0,0-12,6.24c-4.52-1-8.83-2.15-12.71-3.22-9.05-2.51-15.6-4.32-18.42-1.56a1,1,0,0,1-.87.36A1.68,1.68,0,0,1,9.36,58a1.67,1.67,0,0,0-.93-0.49H8.15A0.7,0.7,0,0,0,8.11,57.41Zm46.53-6.77c-0.17,1.09-.77,1.42-3.06,2.16l-0.06,0A19.49,19.49,0,0,1,45,52.9c-2.7-.31-5.41-0.76-8.07-1.34,1.32-2.43,2.42-4.48,3.71-6.88l1.23-2.29c2,0.37,9.6,4.69,11.36,5.83C54.33,49,54.78,49.71,54.64,50.63Zm-15-15.85h0.07a1.79,1.79,0,0,1,1,.19c0.12,0,.22.11,0.34,0.17l-0.43.52a7.08,7.08,0,0,0-1.1-.6Zm3.55,0.06L43.9,34a6.93,6.93,0,0,1,.65.7c0.25,0.32.46,0.6,0.64,0.87l-0.9.57A7.36,7.36,0,0,0,43.16,34.85ZM43,36.9l-0.73.46a7.39,7.39,0,0,0-.62-0.72L42.22,36A6,6,0,0,1,43,36.9Zm-3.22,2v0l0.93-1.13c0.11,0.12.21,0.24,0.31,0.37Zm-0.21-2.1-0.84,1-0.16-.16c0-.19.05-0.39,0.08-0.59s0.06-.47.1-0.71A5.49,5.49,0,0,1,39.61,36.83Zm2.2,2.59a5.54,5.54,0,0,1,.25.7L40.83,40Zm1.63,0.13a7.14,7.14,0,0,0-.36-0.94l0.68-.43a5.55,5.55,0,0,1,.3,1.06Zm2-1A7.14,7.14,0,0,0,45,37.39l0.87-.55a3.8,3.8,0,0,1,.25,1.37ZM42,34a6.92,6.92,0,0,0-.72-0.37,4.27,4.27,0,0,0-.84-0.26l0.4-.73a4.64,4.64,0,0,1,1.91.46Zm-4.63,4.53a16.66,16.66,0,0,1,2.41,2.68,0.74,0.74,0,0,0,.56.31l0.33,0L39.3,44c-1.7,3.16-3.07,5.71-5,9.32a2.83,2.83,0,0,1-.82,1,2.07,2.07,0,0,1-1.47.21L29.51,54c-3.83-.73-7.76-1.48-11.52-2.39,1.08-.76,2.14-1.54,3.2-2.32a0.74,0.74,0,0,0,.3-0.22c2.12-1.58,4.21-3.19,6.25-4.78,2.65-2.05,5.14-4,7.52-5.69a5.79,5.79,0,0,1,1.86-1c0,0.07,0,.14,0,0.21A0.74,0.74,0,0,0,37.33,38.52ZM68.85,50.06l-0.15.18A5.15,5.15,0,0,0,68,49.59c-0.2-.17-0.42-0.32-0.64-0.47l0.15-.35A5.15,5.15,0,0,1,68.85,50.06Zm7,1.95a6.11,6.11,0,0,1,0,.63,1.47,1.47,0,0,1-.16.82,0.9,0.9,0,0,1-.6.16h0a3.88,3.88,0,0,1-2.35-.92,13.09,13.09,0,0,1-1.92-2.21A31.34,31.34,0,0,0,75.87,52Zm-9.44.58-0.22.14-0.34-.14L66,52.28ZM64.53,52v-0.6l0.22,0.11ZM63,51.64l-0.1,0-0.37-.84L63,50.85v0.79ZM68,53.4a0.73,0.73,0,0,0,.24-0.19l1.48-1.82a13.82,13.82,0,0,0,2.16,2.46L72.07,54a9.12,9.12,0,0,1-1.63,0,14.31,14.31,0,0,1-2.53-.56ZM67.1,50.74a2.77,2.77,0,0,1,.64.69l-0.15.19c-0.27-.22-0.6-0.47-1-0.72l0.17-.38Zm-1.76-.61c-0.26-.13-0.53-0.26-0.82-0.38V49.35a8.31,8.31,0,0,1,1,.4ZM63,49.35a5.81,5.81,0,0,0-.82-0.08l0-.3A6,6,0,0,1,63,49v0.33Zm-1-1.84,0-.38a4.07,4.07,0,0,1,1.07,0v0.36A7.22,7.22,0,0,0,62,47.51Zm-41,18.18a0.89,0.89,0,0,1,.88-0.76H22l11.38,1.56a0.89,0.89,0,0,1,.76,1v0a0.89,0.89,0,0,1-.88.76H33.18L21.8,66.72a0.89,0.89,0,0,1-.76-1v0Zm19,0.46h0l-7.17-1.44c-3.32-.67-6.9-1.09-10.36-1.5C20.71,63,19,62.77,17.29,62.53l-1.08-.15c-1.07-.14-2.14-0.29-3.2-0.48-2-.35-3.45-0.65-5-1,0-.25,0-0.5.05-0.74s0-.44,0-0.65S8.23,59,8.19,59l0.19,0.15a2,2,0,0,0,.66.43,2.41,2.41,0,0,0,2.41-.69c2.22-2.17,9.07-.27,17,1.93,4.23,1.17,9,2.48,14,3.48l-0.66.51ZM66.23,48.09l-0.13.31a9.61,9.61,0,0,0-1.59-.59V47.5l1,0.31C65.77,47.9,66,48,66.23,48.09ZM55.63,43a52.21,52.21,0,0,0,5,3.1,0.73,0.73,0,0,0-.22.61l0.48,3.9a0.73,0.73,0,0,0,.09.28l0.16,0.35a10.62,10.62,0,0,0-4.29-.13c-0.29.06-.58,0.13-0.86,0.21a3.69,3.69,0,0,0,.1-0.41C56.33,49.34,55.62,48,54,47c-0.08-.05-7.09-4.33-10.73-5.69l3.93-2a0.74,0.74,0,0,0,.41-0.61,6.67,6.67,0,0,0,0-.8A40.8,40.8,0,0,0,52,40.71C53.21,41.42,54.48,42.15,55.63,43ZM30.3,33.72a4.85,4.85,0,0,1-.49-1.28c-0.56-3.36,5-9.15,6.5-10.19a1.18,1.18,0,0,1,.89-0.32,1.39,1.39,0,0,1,.51.49,35.11,35.11,0,0,1,1.93,3.49c0.84,1.62,1.86,3.57,3,5.56a7.14,7.14,0,0,0-2.3-.34,0.72,0.72,0,0,0-.55.28,0.72,0.72,0,0,0-.21-0.09c-1.82-.34-3.51.46-5.1,1.31-1.26.67-2.51,1.38-3.76,2.11A9.43,9.43,0,0,0,30.3,33.72ZM14.53,31.18c1.64,0.09,2.93,1.71,3.56,2.69,1.33,2,3,4.58,6.69,4.58h0.31a9.52,9.52,0,0,0,3.07-.59,11.92,11.92,0,0,0,1.82-1c1.7-1,3.45-2,5.21-3A7.23,7.23,0,0,1,39,32.76L37.44,35.7a0.75,0.75,0,0,0-.08.23c0,0.05,0,.1,0,0.15a6.43,6.43,0,0,0-2.94,1.33c-2.4,1.71-4.91,3.66-7.57,5.73-2,1.56-4.05,3.14-6.13,4.69l-3.55-.92a6.88,6.88,0,0,0-1.84-.28v0c-1.22-3-2.47-6.15-2.68-9.41a30.8,30.8,0,0,1,.15-4.4c0-.23,0-0.45.06-0.67A1.67,1.67,0,0,1,14.53,31.18ZM10.14,44c0.31-.84.61-1.52,1-2.35a10,10,0,0,0,.48-1.24A44.65,44.65,0,0,0,13.87,47a5.8,5.8,0,0,0-2,2.35,15.73,15.73,0,0,1-3.38,4.52A22.73,22.73,0,0,1,10.14,44ZM20.49,71.44C19.77,71.36,18.81,71.17,18,71l-0.74-.14a25.35,25.35,0,0,1-8.36-3.15,4.85,4.85,0,0,1-1.49-1.13,1.51,1.51,0,0,1-.2-0.81L7.78,66c0.46,0.19.91,0.38,1.38,0.53,2.28,0.73,4.64,1.48,6.89,2.38l1.18,0.48a22.48,22.48,0,0,0,4.22,1.38,73.86,73.86,0,0,0,12.39,1.31v0A111.79,111.79,0,0,1,20.49,71.44Zm74-5.07a18.53,18.53,0,0,1-3.18,2.12,14.66,14.66,0,0,1-5.19,1.68L86.23,70a6.06,6.06,0,0,1,3.35-3.3,9.67,9.67,0,0,1,2.7-.5,9.19,9.19,0,0,0,2.82-.54A3.05,3.05,0,0,1,94.54,66.37Zm1.08-2.86c-0.86,1-2,1.12-3.46,1.24a10.9,10.9,0,0,0-3.11.59,7.57,7.57,0,0,0-4.18,4.13l-0.09.22a2.19,2.19,0,0,1-.4.76,2.16,2.16,0,0,1-1.18.34A286.35,286.35,0,0,1,35.37,72l-0.07-.2L42.65,66a20.6,20.6,0,0,1,5.29-3.36,6.41,6.41,0,0,1,5.63.26,10.08,10.08,0,0,1,2,1.94,9.71,9.71,0,0,0,2.81,2.47,9.67,9.67,0,0,0,2.9.79c4.14,0.66,8.36,1.19,12.55,1.59a5.64,5.64,0,0,0,3.3-.38A5.76,5.76,0,0,0,79,67.35c0.17-.24.34-0.49,0.53-0.71,1.62-2,4.37-2.71,6.85-3.16,0.53-.1,1.16-0.18,1.85-0.27,2.5-.34,5.52-0.74,7.14-2.07a7.54,7.54,0,0,1,.29,2.3Z" transform="translate(-5.7 -20.43)"></path><path d="M34,41c-1.6,1.12-8.84,6.39-9.55,6.93a2,2,0,0,0-.76.93,1.67,1.67,0,0,0,.62,1.82c0.2,0.16.4,0.31,7.15,1.47a2.64,2.64,0,0,0,2.72-1.25L35,49.57c2.21-3.6,3.19-5.36,3.19-6.27a3,3,0,0,0-1.66-2.47A2.35,2.35,0,0,0,34,41Zm-2.29,9.7c-4.16-.71-6.08-1.1-6.55-1.23a0.31,0.31,0,0,1-.07-0.13,0.8,0.8,0,0,1,.24-0.23h0c0.71-.54,7.92-5.79,9.52-6.9a0.86,0.86,0,0,1,1,0,1.77,1.77,0,0,1,.8.89l-1.82.52s-3.38,1.13-3.64,3a2.64,2.64,0,0,0,.22,1.41,5.85,5.85,0,0,0,1.54,2.15l0,0A1.18,1.18,0,0,1,31.71,50.67Zm2-1.9a4.35,4.35,0,0,1-1-1.41,1.25,1.25,0,0,1-.13-0.63c0.08-.58,1.92-1.57,2.58-1.75l0.88-.25C35.43,46,34.37,47.74,33.73,48.77Z" transform="translate(-5.7 -20.43)"></path><circle cx="48.54" cy="40.71" r="0.77" transform="translate(-6.18 -19.86) rotate(-0.67)"></circle><circle cx="51.75" cy="42.59" r="0.77" transform="translate(-6.2 -19.82) rotate(-0.67)"></circle><circle cx="55.06" cy="44.68" r="0.77" transform="translate(-6.22 -19.78) rotate(-0.67)"></circle><circle cx="58.42" cy="46.84" r="0.77" transform="translate(-6.25 -19.74) rotate(-0.67)"></circle></svg>